<?xml version="1.0" encoding="utf-8"?>
<!-- Generator: Adobe Illustrator 20.1.0, SVG Export Plug-In . SVG Version: 6.00 Build 0)  -->
<svg version="1.1" id="Layer_1" xmlns="http://www.w3.org/2000/svg" xmlns:xlink="http://www.w3.org/1999/xlink" x="0px" y="0px"
	 viewBox="0 0 249.8 249.8" style="enable-background:new 0 0 249.8 249.8;" xml:space="preserve">
<style type="text/css">
	.st0{fill:#A09F9F;stroke:url(#SVGID_1_);stroke-width:9;stroke-miterlimit:10;}
	.st1{fill:#FFFFFF;}
	.st2{fill:none;stroke:#F16485;stroke-width:5;stroke-miterlimit:10;}
	.st3{fill:#F16485;stroke:#F16485;stroke-width:1.5509;stroke-miterlimit:10;}
	.st4{fill:#F16485;stroke:#FFFFFF;stroke-width:6;stroke-miterlimit:10;}
	.st5{fill:#F16485;}
	.st6{fill:none;stroke:#F16485;stroke-width:3;stroke-miterlimit:10;}
	.st7{fill:#FF6485;}
</style>
<g>
	
		<linearGradient id="SVGID_1_" gradientUnits="userSpaceOnUse" x1="191.6695" y1="112.8458" x2="436.1591" y2="112.8458" gradientTransform="matrix(-1 0 0 1 71.34 71.84)">
		<stop  offset="0" style="stop-color:#FFFFFF"/>
		<stop  offset="0.9951" style="stop-color:#F16485"/>
	</linearGradient>
	<circle class="st0" cx="-242.7" cy="184.7" r="117.6"/>
</g>
<path class="st1" d="M-204.4,242.7H-285c-10.9,0-19.9-9-19.9-19.9v-75.7c0-10.9,9-19.9,19.9-19.9h80.2c10.9,0,19.9,9,19.9,19.9v75.7
	C-184.9,233.7-193.6,242.7-204.4,242.7z"/>
<line class="st2" x1="-304.5" y1="159.9" x2="-184.9" y2="159.9"/>
<circle class="st3" cx="-244.9" cy="186.9" r="31.9"/>
<circle class="st4" cx="-244.9" cy="186.9" r="22.5"/>
<rect x="-207.4" y="138.1" class="st5" width="14.6" height="14.6"/>
<line class="st6" x1="-291.4" y1="129.5" x2="-291.4" y2="147.1"/>
<line class="st6" x1="-286.1" y1="127.6" x2="-286.1" y2="147.1"/>
<line class="st6" x1="-280.5" y1="127.6" x2="-280.5" y2="147.1"/>
<g>
	<path class="st7" d="M4.7,199.7c0-50,0-99.7,0-149.7c0.8,0,1.5,0,2.2,0c23,0,46.1,0,69.1,0c7.6,0,15.1,0.8,22.3,3.4
		c12.3,4.5,20.6,12.7,23.3,25.8c2,9.8,1.7,19.5-3.6,28.5c-2.6,4.4-6.4,7.6-10.8,10.1c-0.8,0.5-1.6,0.9-2.6,1.5
		c2.5,1.3,4.7,2.4,6.9,3.6c7.6,4.5,12.4,11.2,14.4,19.7c4,16.7,0.5,31.7-11.7,44.2c-6.4,6.6-14.5,10.2-23.5,11.4
		c-6.4,0.9-12.8,1.5-19.2,1.5c-21.5,0.2-43,0.1-64.5,0.1C6.2,199.8,5.5,199.7,4.7,199.7z M39.4,134.1c0,13.3,0,26.4,0,39.6
		c12,0,23.8,0.1,35.7-0.1c2.9,0,5.9-0.8,8.7-1.6c6.1-1.9,9.8-6.2,11.3-12.3c1.1-4.3,1.3-8.6,0.1-12.9c-2.2-8.2-8.5-11.8-16.1-12.2
		c-13.1-0.7-26.3-0.4-39.4-0.6C39.6,134,39.5,134,39.4,134.1z M39.3,108.9c0.6,0.1,1.1,0.1,1.6,0.1c9.9,0,19.9,0.1,29.8,0
		c2.6,0,5.3-0.3,7.8-0.7c3.4-0.5,6.7-1.7,9.4-3.9c4-3.2,4.8-7.8,4.8-12.6c0-8.2-3.6-12.7-11.7-14.4c-3.4-0.7-6.9-1.2-10.3-1.3
		C60.6,75.9,50.5,76,40.4,76c-0.3,0-0.6,0.1-1.1,0.1C39.3,87,39.3,97.9,39.3,108.9z"/>
	<path class="st7" d="M245,149.3c-25.7,0-51.5,0-77.7,0c0.2,5.2,1.1,10,3.5,14.4c4,7.5,10.7,11,18.8,12c4.9,0.6,9.8,0.3,14.5-1.5
		c4.1-1.6,7.5-4.2,9.6-8.1c1-1.8,2.1-2.4,4.2-2.4c7.8,0.1,15.7,0.1,23.5,0.1c0.8,0,1.5,0,2.4,0c-0.7,5.8-3.2,10.4-6.4,14.7
		c-6.5,8.6-14.7,14.9-25.2,17.7c-20.4,5.4-39.5,3-56.5-10.4c-8.7-6.8-13.2-16.2-15.1-26.9c-2.5-13.6-2.3-27.2,2-40.4
		c4.9-14.9,14.9-25.3,29.8-30.4c14.7-5,29.4-4.4,43.8,1.3c8.6,3.4,15.1,9.4,20.2,17c5.4,8.3,8.2,17.4,8.6,27.3
		C245.2,138.9,245,144,245,149.3z M216.1,130.8c-0.3-12.8-8.8-22.3-23.7-22.6c-15-0.3-22.7,9.8-24.1,22.6
		C184.2,130.8,200.1,130.8,216.1,130.8z"/>
	<path class="st7" d="M221.9,71.1c-20.1,0-40,0-60,0c0-4.9,0-9.8,0-14.7c20,0,39.9,0,60,0C221.9,61.2,221.9,66.1,221.9,71.1z"/>
</g>
</svg>
