<?xml version="1.0" encoding="utf-8"?>
<!-- Generator: Adobe Illustrator 20.1.0, SVG Export Plug-In . SVG Version: 6.00 Build 0)  -->
<svg version="1.1" id="Layer_1" xmlns="http://www.w3.org/2000/svg" xmlns:xlink="http://www.w3.org/1999/xlink" x="0px" y="0px"
	 viewBox="0 0 249.8 249.8" style="enable-background:new 0 0 249.8 249.8;" xml:space="preserve">
<style type="text/css">
	.st0{fill:#FF6485;}
</style>
<path class="st0" d="M247.8,137.4c-1.4,7.4-2.2,15.1-4.3,22.3c-11.8,40.6-37.3,68.7-77,83.7c-7.8,3-10.9,0.7-10.9-7.6
	c0-9.6,0.1-19.3,0-28.9c-0.1-8.7-0.8-17.2-7.9-24.4c4.7-0.9,8.7-1.6,12.6-2.5c26.2-5.6,41.2-23.5,42.8-50.1
	c0.9-14.7-0.9-28.3-10.9-39.9c-0.8-0.9-0.7-3-0.4-4.4c2.4-8.5,1.5-16.8-0.7-25.3c-1.3-5.3-4.6-6-8.5-4.6c-7.6,2.8-15.2,6-22.3,9.8
	c-3.5,1.9-6.4,2.4-10.2,1.5c-16.9-4-33.9-4-50.8,0.1c-3.6,0.9-6.3,0.2-9.7-1.5c-7.2-3.8-14.8-7-22.4-9.8c-4.5-1.7-7.7-0.5-9,5.2
	c-1.9,8.3-2.6,16.4-0.3,24.8c0.4,1.4,0,3.6-0.9,4.8c-26,35.6-6.1,83.9,37.3,90.5c2.1,0.3,4.3,0.7,6.1,1.1c-2,5.2-3.9,10.3-5.9,15.4
	c-0.3,0.8-1.5,1.6-2.4,1.9c-12.7,4.3-23.2,3.3-32.2-9.2c-3.5-4.9-8.3-9-13.1-12.6c-3.5-2.6-8-3.1-13.3-0.2c2.1,2.2,3.9,3.9,5.5,5.7
	c3.9,4.4,9.6,8.3,11.3,13.5c5.6,17.6,20.7,21.8,39,19.9c1.4-0.1,2.8-0.3,5-0.5c0,7.8,0.3,15.2-0.1,22.6c-0.3,5.4-4,7.1-10,5.1
	c-16-5.5-30.4-13.8-42.7-25.6c-22.2-21.3-36-46.8-38.8-77.8c-0.1-0.7-0.5-1.3-0.8-1.9c0-6.9,0-13.8,0-20.8c0.8-5,1.4-10,2.5-14.9
	C18.2,39.5,75.8-2.2,140.1,6.2c51.4,6.7,85.1,36.4,102,85.1c2.9,8.4,3.8,17.6,5.7,26.4C247.8,124.3,247.8,130.8,247.8,137.4z"/>
</svg>
