<?xml version="1.0" encoding="utf-8"?>
<!-- Generator: Adobe Illustrator 20.1.0, SVG Export Plug-In . SVG Version: 6.00 Build 0)  -->
<svg version="1.1" id="Layer_1" xmlns="http://www.w3.org/2000/svg" xmlns:xlink="http://www.w3.org/1999/xlink" x="0px" y="0px"
	 viewBox="0 0 249.8 249.8" style="enable-background:new 0 0 249.8 249.8;" xml:space="preserve">
<style type="text/css">
	.st0{fill:#BC1023;}
</style>
<path class="st0" d="M109.6,163.4c-1.8,6.9-3.4,13.4-5.1,19.9c-3.2,12.6-5.8,25.5-12.6,36.9c-5.2,8.7-11,17.2-16.7,25.7
	c-0.6,0.9-2.1,1.6-3.1,1.5c-0.7-0.1-1.5-1.7-1.7-2.7c-2.6-19.1-3.1-38.1,1.6-57.1c5.8-23.1,11-46.3,16.4-69.5
	c0.4-1.5-0.1-3.4-0.6-4.9c-3.9-11.6-4.6-23.2-0.8-34.9c2-6.1,5.1-11.5,10.2-15.6c6.2-5.1,13.3-7,21-4.7c8.4,2.5,13.6,9.9,13,20.2
	c-0.5,7.6-2.4,15.1-4.2,22.5c-2.3,9-5.2,17.9-7.8,26.8c-4.4,15.5,7.8,28.7,23.7,27.4c10.1-0.8,17.8-6,24.1-13.6
	c7-8.5,11.2-18.3,13.9-28.8c3.6-14.1,5.4-28.4,2.9-42.8c-3.5-20.2-15.7-33.2-35-39.2c-15-4.7-30.3-4.4-45.3,0.4
	C74,40.2,55.2,69.2,58.5,100.3c0.8,7.8,3.5,14.9,8.7,20.9c2.3,2.6,3.1,5.4,2,8.8c-1.1,3.4-1.6,6.9-2.6,10.4c-1.2,4.3-3.9,5.8-8.1,4
	c-10.3-4.3-17.7-11.7-22-21.8c-11.1-26.5-8.3-52,6.9-76C58.5,22.7,80.7,9.7,108,4.6c13.2-2.5,26.5-2.9,39.8-0.7
	c18.2,3,34.4,10.3,47.7,23.3c16.1,15.6,24.6,34.6,24.5,57.2c-0.1,15.9-2.5,31.5-8.6,46.2c-9.2,22.3-23.9,39.2-47.7,46.5
	c-10.5,3.2-21.3,4.2-32.1,1.1c-8.1-2.3-15.1-6.3-20.5-13C110.7,164.6,110.3,164.2,109.6,163.4z"/>
</svg>
